# xmcd
#
# Track frame offsets:
#	150
#	18471
#	34157
#	48739
#	68932
#	83493
#	102593
#	121623
#	137259
#	141051
#	153688
#	170149
#	197500
#	218418
#	230109
#	249390
#	271070
#	300396
#
# Disc length: 4123 seconds
#
# Revision: 1
# Processed by: cddbd v1.5.1PL2 Copyright (c) Steve Scherf et al.
# Submitted via: audiograbber 1.83.01
#
DISCID=f2101912
DTITLE=The Fall - Permanent Years (Paranoid Man in Cheap Shit Room)
DYEAR=2006
DGENRE=Rock
TTITLE0=Ladybird
TTITLE1=Rainmaster
TTITLE2=Behind the Counter
TTITLE3=Why Are People Grudgeful
TTITLE4=Glamracket
TTITLE5=City Dweller
TTITLE6=Service
TTITLE7=War
TTITLE8=Three Points
TTITLE9=The Aphid
TTITLE10=The Remixer
TTITLE11=Bonkers in Phoenix
TTITLE12=Cab Driver
TTITLE13=$500 Bottle of Wine
TTITLE14=Paranoia Man in Cheap Shit Room
TTITLE15=Life Just Bounces
TTITLE16=Noel's Chemical Effluence
TTITLE17=Ten Points
EXTD=
EXTT0=
EXTT1=
EXTT2=
EXTT3=
EXTT4=
EXTT5=
EXTT6=
EXTT7=
EXTT8=
EXTT9=
EXTT10=
EXTT11=
EXTT12=
EXTT13=
EXTT14=
EXTT15=
EXTT16=
EXTT17=
PLAYORDER=
